<svg xmlns="http://www.w3.org/2000/svg" width="600" height="200" viewBox="0 0 600 200">
  <path fill="#FFF" fill-rule="evenodd" d="M198.560048,50.2414649 L188.584328,114.380251 C187.932265,117.848345 187.71654,120.666258 187.71654,123.267678 C187.71654,134.973717 192.928154,140.827435 204.657601,140.827435 C216.819197,140.827435 227.679461,133.456164 235.063686,120.666258 L246.344229,50.2414649 L266.542113,50.2414649 L250.267775,152.964366 C245.489706,183.310537 227.679461,199.132755 199.661712,199.132755 C182.504228,199.132755 169.037808,192.848843 159.914517,182.225972 L171.209023,168.3522 C179.029586,177.457518 188.367206,181.792984 199.444591,181.792984 C216.384954,181.792984 226.810975,172.038883 230.069892,152.964366 L231.371922,145.3773 L230.936981,145.3773 C221.816482,153.831739 211.174039,158.3837 199.444591,158.3837 C177.72546,158.3837 167.300138,147.545732 167.300138,126.953662 C167.300138,123.052581 167.734381,118.933608 168.386444,114.380251 L178.580682,50.2414649 L198.560048,50.2414649 Z M143.835658,0.0511767752 L140.999116,18.0969975 L127.472656,18.0767449 C112.854306,18.0592857 104.503855,25.2797091 101.86,41.382671 L100.570535,49.5011952 L128.438882,49.5011952 L125.48575,68.0177158 L97.6537071,68.0177158 L82.451712,157.727234 C78.3201204,183.503287 60.7221093,198.257002 34.2912329,198.224179 L32.7699862,198.214402 L35.8557643,178.660805 L36.842934,178.651726 C51.7216904,178.669186 59.7209768,172.381781 62.3494733,156.360528 L72.2197744,98.1823108 L0,98.1823108 L2.96360364,79.6636951 L75.3621019,79.6636951 L77.3378376,68.0177158 L5.2144065,68.0177158 L8.17801015,49.5011952 L80.2560622,49.5011952 L81.6607195,40.6396078 C85.7888205,14.8663487 103.108274,0.0197502298 129.395333,0.0511767752 L143.835658,0.0511767752 Z M561.361683,46.7803547 C573.330592,46.7803547 583.365655,50.2868588 590.377073,56.9220501 C596.403416,62.6284124 599.862699,70.4997145 599.862699,78.5197689 C599.862699,90.0847376 595.068573,98.8555373 585.612967,104.591231 C575.973052,110.437267 563.948291,111.634967 555.037932,111.634967 L555.037932,111.634967 L525.518485,111.634967 C523.822005,122.00014 524.880385,129.594889 528.81929,134.209004 C532.564811,138.598245 538.242084,140.757598 545.648649,140.610941 C573.730627,140.05504 574.61517,120.610389 574.61517,120.610389 L574.61517,120.610389 L593.175916,120.610389 C593.175916,120.610389 589.177669,157.599433 545.097119,157.599433 C531.483392,157.599433 520.432536,153.10823 513.978234,144.954788 C507.037327,136.188877 504.561025,125.472425 506.404813,112.195757 L506.404813,112.195757 L507.934437,102.692369 C512.227997,77.7774041 517.570861,46.7803547 561.361683,46.7803547 Z M291.593465,50.2414649 L302.825837,123.847323 L336.901345,50.2414649 L356.499527,50.2414649 L368.291109,123.847323 L401.421335,50.2414649 L422.632918,50.2414649 L374.5995,156.630098 L354.03998,156.630098 L342.432009,82.8915505 L309.104209,156.630098 L288.356889,156.630098 L271.158912,50.2414649 L291.593465,50.2414649 Z M445.617078,50.2414649 L428.67462,156.630098 L408.476736,156.630098 L425.415703,50.2414649 L445.617078,50.2414649 Z M477.559769,69.3131878 C484.889539,55.7564745 499.18116,46.0903675 518.227113,49.0444627 L518.227113,49.0444627 L515.214639,67.9576562 C513.604729,67.8040153 512.142824,67.8005234 510.139163,67.8005234 C493.664458,67.8005234 478.112695,78.1880442 474.149355,99.1279007 L474.149355,99.1279007 L465.178957,156.236219 L444.978978,156.236219 L461.922832,49.8475856 L481.832384,49.8475856 Z M171.961618,0.0511767752 L147.086197,155.965951 L126.888313,155.965951 L151.763734,0.0511767752 L171.961618,0.0511767752 Z M560.009386,63.9490257 C543.09625,63.9490257 531.989543,73.8679418 528.732023,91.8809393 L528.732023,91.8809393 L528.100904,95.2694192 L555.435872,95.2694192 C572.477466,95.2694192 580.413919,90.072167 580.413919,78.9143466 C580.413919,69.8229962 572.404161,63.9490257 560.009386,63.9490257 Z M439.18721,17.3581245 C445.587058,17.3581245 450.777728,22.5246486 450.777728,28.8986504 C450.777728,35.2712554 445.587058,40.4391762 439.18721,40.4391762 C432.785268,40.4391762 427.597391,35.2712554 427.597391,28.8986504 C427.597391,22.5246486 432.785268,17.3581245 439.18721,17.3581245 Z"/>
</svg>
