<svg xmlns="http://www.w3.org/2000/svg" width="2998" height="995" viewBox="0 0 2998 995">
  <g fill="#147BD1" fill-rule="evenodd">
    <polyline points="634.019 779.31 758.313 .256 859.235 .256 734.941 779.31 634.019 779.31"/>
    <path d="M1250.50465 764.311951C1226.63023 915.94165 1137.63837 995 997.643023 995 911.912791 995 844.625581 963.601385 799.039535 910.522441L855.474419 841.199825C894.551163 886.696063 941.20814 908.358944 996.55814 908.358944 1081.20349 908.358944 1133.29884 859.620951 1149.58256 764.311951L1156.08837 726.401909 1153.91512 726.401909C1108.34302 768.645923 1055.16628 791.390552 996.55814 791.390552 888.034884 791.390552 835.943023 737.236839 835.943023 634.345133 835.943023 614.852727 838.112791 594.271594 841.37093 571.519986L892.30814 251.039853 992.138372 251.039853 942.293023 571.519986C939.034884 588.848895 937.956977 602.92907 937.956977 615.927497 937.956977 674.418671 963.997674 703.667748 1022.60581 703.667748 1083.37326 703.667748 1137.63837 666.835965 1174.53488 602.92907L1230.9 251.039853 1331.82209 251.039853 1250.50465 764.311951M2386.20698 346.334895L2407.55581 249.071769 2308.07442 249.071769 2223.41163 780.660308 2324.34419 780.660308 2369.16628 495.309077C2388.96977 390.679594 2466.67674 338.776615 2548.99535 338.776615 2559.00698 338.776615 2566.31163 338.794063 2574.35581 339.561755L2589.40814 245.058832C2494.24186 230.298203 2422.8314 278.596517 2386.20698 346.334895"/>
    <polyline points="2005.769 251.04 1840.228 618.824 1781.309 251.04 1683.384 251.04 1513.12 618.824 1456.995 251.04 1354.891 251.04 1440.823 782.628 1544.491 782.628 1711.019 414.181 1769.02 782.628 1871.749 782.628 2111.756 251.04 2005.769 251.04"/>
    <polyline points="2041.022 782.628 2125.66 251.04 2226.6 251.04 2141.944 782.628 2041.022 782.628"/>
    <path d="M2252.38605 144.396923C2252.38605 176.238706 2226.45 202.061084 2194.47209 202.061084 2162.48372 202.061084 2136.56163 176.238706 2136.56163 144.396923 2136.56163 112.548161 2162.48372 86.7327622 2194.47209 86.7327622 2226.45 86.7327622 2252.38605 112.548161 2252.38605 144.396923M2726.42442 702.586C2689.41628 703.318797 2661.04884 692.529231 2642.33372 670.597657 2622.65233 647.542462 2617.36395 609.594035 2625.8407 557.80272L2773.33953 557.80272C2817.86163 557.80272 2877.94535 551.81821 2926.11279 522.607517 2973.3593 493.948168 2997.31395 450.123406 2997.31395 392.337112 2997.31395 352.263573 2980.02907 312.933301 2949.91744 284.42051 2914.88372 251.266671 2864.74186 233.745839 2804.93721 233.745839 2586.12907 233.745839 2559.43256 388.627762 2537.97907 513.119538L2530.33605 560.604797C2521.12326 626.943881 2533.49651 680.49042 2568.17791 724.290755 2600.42791 765.03079 2655.64535 787.471832 2723.6686 787.471832 2943.92442 787.471832 2963.90233 602.649909 2963.90233 602.649909L2871.16047 602.649909C2871.16047 602.649909 2866.7407 699.80835 2726.42442 702.586L2726.42442 702.586zM2641.89767 459.098427C2658.17442 369.093483 2713.67093 319.531965 2798.18023 319.531965 2860.11279 319.531965 2900.13488 348.882238 2900.13488 394.308685 2900.13488 450.060594 2860.47907 476.029531 2775.32791 476.029531L2638.74419 476.029531 2641.89767 459.098427 2641.89767 459.098427zM386.431395 339.861853L26.0546512 339.861853 40.8627907 247.340972 401.012791 247.340972 408.031395 203.062573C428.65814 74.2821888 515.197674.0986853147 646.545349.255713287L718.698837.255713287 704.525581 90.4246643 636.938372 90.3234685C563.895349 90.2362308 522.17093 126.31428 508.960465 206.775413L502.517442 247.340972 641.766279 247.340972 627.010465 339.861853 487.943023 339.861853 411.983721 788.110413C391.339535 916.904755 303.40814 990.624154 171.34186 990.460147L163.740698 990.411294 179.159302 892.70849 184.09186 892.663126C258.436047 892.750364 298.405814 861.334301 311.539535 781.281441L360.85814 490.58428 0 490.58428 14.8081395 398.05293 376.559302 398.05293 386.431395 339.861853z"/>
  </g>
</svg>
